<svg width="1920" height="1170" viewBox="0 0 1920 1170" xmlns="http://www.w3.org/2000/svg" xmlns:xlink="http://www.w3.org/1999/xlink"><title>Desktop</title><desc>Created using Figma</desc><clipPath id="a" clip-rule="evenodd"><path d="M0 0h1920v1170H0V0z" fill="#FFF"/></clipPath><g clip-path="url(#a)"><use xlink:href="#b" fill="url(#c)"/><use xlink:href="#d" transform="translate(1168 -96)" fill="url(#e)" opacity=".67"/><use xlink:href="#f" transform="translate(888 -136)" fill="url(#g)" opacity=".686"/><use xlink:href="#h" transform="rotate(45 -179.28 154.163)" fill="url(#i)" opacity=".597"/><use xlink:href="#h" transform="rotate(45 -561.459 973.013)" fill="url(#j)" opacity=".597"/><use xlink:href="#k" transform="rotate(45 -538.333 851.304)" fill="url(#l)" opacity=".597"/><use xlink:href="#m" transform="rotate(45 -802.167 412.375)" fill="url(#n)" opacity=".597"/><use xlink:href="#m" transform="rotate(45 47.984 566.52)" fill="url(#o)" opacity=".597"/><use xlink:href="#p" transform="rotate(45 -74.472 418.797)" fill="url(#q)" opacity=".597"/></g><defs><linearGradient id="c" x2="1" gradientUnits="userSpaceOnUse" gradientTransform="matrix(-942.736 741.188 -1216.31 -574.48 1902.74 18.656)"><stop offset="0" stop-color="#1574BB"/><stop offset="1" stop-color="#51509C"/></linearGradient><radialGradient id="e" cx=".5" cy=".5" r=".5" gradientUnits="userSpaceOnUse" gradientTransform="matrix(720.284 1900.35 -2087.73 655.637 1361.15 -1655.8)"><stop offset="0" stop-color="#B949BE" stop-opacity=".01"/><stop offset=".811" stop-color="#B949BE"/><stop offset="1" stop-color="#B949BE" stop-opacity=".108"/></radialGradient><radialGradient id="g" cx=".5" cy=".5" r=".5" gradientUnits="userSpaceOnUse" gradientTransform="scale(968.5673) rotate(-85.172 .645 .494)"><stop offset="0" stop-color="#7F46CA"/><stop offset="1" stop-color="#7F46CA" stop-opacity=".01"/></radialGradient><linearGradient id="i" x2="1" gradientUnits="userSpaceOnUse" gradientTransform="rotate(37.956 -8.044 -5.32) scale(33.2577)"><stop offset="0" stop-color="#B949BE" stop-opacity=".539"/><stop offset="1" stop-color="#B949BE"/></linearGradient><linearGradient id="j" x2="1" gradientUnits="userSpaceOnUse" gradientTransform="rotate(37.956 -8.044 -5.32) scale(33.2577)"><stop offset="0" stop-color="#B949BE" stop-opacity=".539"/><stop offset="1" stop-color="#B949BE"/></linearGradient><linearGradient id="l" x2="1" gradientUnits="userSpaceOnUse" gradientTransform="rotate(37.956 -4.46 -2.95) scale(18.4378)"><stop offset="0" stop-color="#B949BE" stop-opacity=".539"/><stop offset="1" stop-color="#B949BE"/></linearGradient><linearGradient id="n" x2="1" gradientUnits="userSpaceOnUse" gradientTransform="rotate(37.956 -3.105 -2.053) scale(12.8369)"><stop offset="0" stop-color="#B949BE" stop-opacity=".539"/><stop offset="1" stop-color="#B949BE"/></linearGradient><linearGradient id="o" x2="1" gradientUnits="userSpaceOnUse" gradientTransform="rotate(37.956 -3.105 -2.053) scale(12.8369)"><stop offset="0" stop-color="#B949BE" stop-opacity=".539"/><stop offset="1" stop-color="#B949BE"/></linearGradient><linearGradient id="q" x2="1" gradientUnits="userSpaceOnUse" gradientTransform="rotate(37.956 -1.552 -1.027) scale(6.41844)"><stop offset="0" stop-color="#B949BE" stop-opacity=".539"/><stop offset="1" stop-color="#B949BE"/></linearGradient><path id="b" fill-rule="evenodd" d="M0 0h1920v1170H0V0z"/><path id="d" fill-rule="evenodd" d="M1225.75 838.102s230.99-44.299-136 292.748c-117.511 107.92-241.117 39.65-241.117 39.65L0 0l1225.75 838.102z"/><path id="f" fill-rule="evenodd" d="M618.5 1237c341.588 0 618.5-276.912 618.5-618.5S960.088 0 618.5 0 0 276.912 0 618.5 276.912 1237 618.5 1237z"/><path id="h" fill-rule="evenodd" d="M0 0h39v39H0V0z"/><path id="k" fill-rule="evenodd" d="M0 0h21.621v21.621H0V0z"/><path id="m" fill-rule="evenodd" d="M0 0h15.053v15.053H0V0z"/><path id="p" fill-rule="evenodd" d="M0 0h7.527v7.527H0V0z"/></defs></svg>