<svg width="262" height="262" viewBox="0 0 262 262" xmlns="http://www.w3.org/2000/svg" xmlns:xlink="http://www.w3.org/1999/xlink"><title>brokenHeart</title><desc>Created using Figma</desc><g transform="translate(2 2)"><use xlink:href="#a" fill="#2D9CDB"/><use xlink:href="#b" fill="#FFF"/></g><defs><path id="a" fill-rule="evenodd" d="M257.1 71.569c-5.159-27.39-18.915-64.5-70.5-71.569-5.158 0-16.335.884-28.371 4.418-2.58.883-4.299 2.65-5.159 5.301l-18.914 50.363c-.86 2.65-.86 6.185 1.719 8.836 2.579 2.65 5.159 3.534 8.598 2.65l14.615-4.417-30.091 75.986-4.299-40.644c0-2.65-1.719-4.418-3.439-6.185-1.719-1.767-4.298-1.767-6.878-1.767l-16.335 2.65 12.037-54.78 4.298-24.74c.86-3.534-.859-7.952-4.298-8.835C95.467.884 78.273 0 70.534 0 19.81 7.068 6.913 44.178.894 72.452c-12.896 84.822 117.786 179.363 123.804 183.781 1.72.883 3.439 1.767 5.159 1.767 1.719 0 3.439-.884 5.158-1.767 5.159-4.418 134.981-98.959 122.085-184.665z"/><path id="b" d="M186.6 0l.272-1.981-.135-.019h-.137v2zm-28.371 4.418l-.564-1.92-.042.013-.043.015.649 1.892zm-5.159 5.301l1.872.703.016-.042.015-.044-1.903-.617zm-18.914 50.363l-1.873-.703-.016.043-.014.043 1.903.617zm10.317 11.486l.497 1.938.041-.01.04-.013-.578-1.915zm14.615-4.417l1.86.736 1.524-3.848-3.962 1.197.578 1.915zm-30.091 75.986l-1.989.21 3.849.526-1.86-.736zm-4.299-40.644h-2v.106l.012.105 1.988-.211zm-10.317-7.952v-2h-.161l-.159.026.32 1.974zm-16.335 2.65l-1.953-.428-.632 2.874 2.906-.471-.32-1.974zm12.037-54.78l1.953.43.01-.044.007-.044-1.97-.342zm4.298-24.74l-1.943-.473-.016.065-.011.066 1.97.342zm-4.298-8.835l-.956 1.756.218.119.24.062.498-1.937zM70.534 0v-2h-.138l-.138.02.276 1.98zM.894 72.452l-1.955-.416-.013.057-.009.058 1.978.301zm123.804 183.781l-1.183 1.612.128.094.141.073.914-1.779zm10.317 0l.915 1.779.208-.107.178-.153-1.301-1.519zm124.05-185.035c-2.6-13.792-7.492-30.36-18.225-44.26-10.864-14.014-27.677-25.317-53.968-28.92l-.543 3.963c25.294 3.466 41.151 14.252 51.35 27.408 10.332 13.27 14.897 28.951 17.455 42.55l3.931-.74zM186.6-2c-5.237.002-16.697.917-28.935 4.499l1.127 3.838C170.628 2.85 181.521 1.998 186.6 2v-4zm-29.02 4.526c-3.19 1.093-5.363 3.342-6.412 6.576l3.805 1.234c.67-2.067 1.935-3.352 3.904-4.026l-1.297-3.784zm-6.382 6.49l-18.915 50.363 3.745 1.406 18.914-50.363-3.744-1.406zm-18.945 50.45c-.995 3.066-1.09 7.477 2.189 10.847l2.867-2.79c-1.88-1.932-1.976-4.59-1.251-6.824l-3.805-1.234zm2.189 10.847c1.435 1.46 3.136 2.612 4.806 3.162 1.696.512 3.756.52 5.722.03l-.995-3.874c-1.473.395-2.421.403-3.521.03-1.123-.332-2.001-.948-3.145-2.138l-2.867 2.79zm10.609 3.17l14.616-4.418-1.157-3.829-14.616 4.418 1.157 3.829zm12.178-7.069l-30.091 75.987 3.719 1.472 30.091-75.986-3.719-1.473zm-26.243 76.513l-4.299-40.644-3.977.421 4.298 40.643 3.978-.42zm-4.288-40.434c0-3.587-2.389-5.919-4.005-7.58l-2.867 2.79c1.823 1.873 2.872 3.076 2.872 4.79h4zm-4.005-7.58c-2.417-2.483-5.967-2.372-8.312-2.372v4c2.814 0 4.422.111 5.445 1.162l2.867-2.79zm-8.632-2.346l-16.335 2.65.64 3.949 16.336-2.65-.641-3.95zM100 97.62l12.036-54.78-3.907-.86-12.036 54.782 3.907.858zm12.053-54.868l4.299-24.74-3.941-.684-4.299 24.74 3.941.684zm4.272-24.609c.482-2.11.201-4.755-.66-6.711-.929-2.047-2.626-3.903-5.085-4.534l-.995 3.874c.981.252 1.863 1.047 2.438 2.313.644 1.358.793 2.687.415 4.112l3.887.946zm-5.286-11.065C96.009-1.041 78.323-2 70.534-2v4c7.687 0 24.39.809 38.593 8.592l1.912-3.513zm-40.78-9.06C44.381 1.625 27.995 12.941 17.351 27.071 6.844 41.075 1.964 57.829-1.061 72.036l3.912.832c2.993-14.066 7.57-30.004 17.696-43.39C30.537 16.215 45.962 5.442 70.81 1.98l-.552-3.962zM-1.084 72.151c-3.308 21.762 2.61 44.007 13.25 65.081 10.624 21.024 26.1 41.153 42.06 58.612 31.956 34.933 66.284 59.796 69.288 62.001l2.367-3.224c-3.015-2.213-37.036-26.829-68.702-61.477-15.85-17.331-31.003-37.018-41.443-57.715C5.314 114.783-.267 93.402 2.872 72.753l-3.955-.602zm124.867 185.861c1.599.821 3.775 1.988 6.073 1.988v-4c-1.141 0-2.404-.6-4.244-1.546l-1.829 3.558zm6.073 1.988c2.298 0 4.474-1.167 6.073-1.988l-1.829-3.558c-1.84.946-3.103 1.546-4.244 1.546v4zm6.459-2.248c2.521-2.161 36.364-26.984 67.997-62.029 31.497-34.91 61.362-80.604 54.764-124.452l-3.955.595c6.298 41.858-22.299 86.287-53.779 121.178-31.344 34.756-64.991 59.413-67.629 61.67l2.602 3.038z"/></defs></svg>